<svg xmlns="http://www.w3.org/2000/svg" xmlns:xlink="http://www.w3.org/1999/xlink" width="1920" zoomAndPan="magnify" viewBox="0 0 1440 809.999993" height="1080" preserveAspectRatio="xMidYMid meet" version="1.0"><defs><g/></defs><g fill="#ff5757" fill-opacity="1"><g transform="translate(247.001946, 529.375013)"><g><path d="M 180.5 -162.5 L 180.5 0 L 141.5 0 L 141.5 -91 L 93.25 -60.25 L 46.5 -90.75 L 46.5 0 L 7.5 0 L 7.5 -162.5 L 93.75 -106.75 Z M 180.5 -162.5 "/></g></g></g><g fill="#ff5757" fill-opacity="1"><g transform="translate(434.999719, 529.375013)"><g><path d="M 131 -123.5 L 88.75 -123.5 L 88.75 0 L 49.75 0 L 49.75 -123.5 L 7.5 -123.5 L 7.5 -162.5 L 131 -162.5 Z M 131 -123.5 "/></g></g></g><g fill="#ff5757" fill-opacity="1"><g transform="translate(571.248117, 529.375013)"><g/></g></g><g fill="#ff5757" fill-opacity="1"><g transform="translate(636.24735, 529.375013)"><g><path d="M 69.25 -161.5 C 91.582031 -161.5 110.75 -153.582031 126.75 -137.75 C 142.582031 -121.914062 150.5 -102.75 150.5 -80.25 C 150.5 -57.914062 142.582031 -38.75 126.75 -22.75 C 110.75 -6.914062 91.582031 1 69.25 1 L 7.5 1 L 7.5 -161.5 Z M 100.25 -49.25 C 108.75 -57.75 113 -68.082031 113 -80.25 C 113 -92.25 108.75 -102.664062 100.25 -111.5 C 91.75 -120 81.332031 -124.25 69 -124.25 L 46.5 -124.25 L 46.5 -36.5 L 69.25 -36.5 C 81.414062 -36.5 91.75 -40.75 100.25 -49.25 Z M 100.25 -49.25 "/></g></g></g><g fill="#ff5757" fill-opacity="1"><g transform="translate(794.24553, 529.375013)"><g><path d="M 66.75 -128.75 C 84.582031 -128.914062 99.75 -122.75 112.25 -110.25 C 124.914062 -97.582031 131.25 -82.414062 131.25 -64.75 C 131.414062 -46.914062 125.25 -31.75 112.75 -19.25 C 100.25 -6.582031 85.164062 -0.164062 67.5 0 C 49.664062 0.164062 34.414062 -6 21.75 -18.5 C 9.082031 -31 2.75 -46.164062 2.75 -64 C 2.582031 -81.832031 8.75 -97 21.25 -109.5 C 33.75 -122.164062 48.914062 -128.582031 66.75 -128.75 Z M 89.5 -42 C 95.664062 -48.164062 98.75 -55.664062 98.75 -64.5 C 98.75 -73.164062 95.582031 -80.664062 89.25 -87 C 82.914062 -93 75.414062 -96 66.75 -96 C 58.082031 -96 50.664062 -92.914062 44.5 -86.75 C 38.332031 -80.25 35.25 -72.75 35.25 -64.25 C 35.25 -55.582031 38.414062 -48.082031 44.75 -41.75 C 50.914062 -35.582031 58.414062 -32.5 67.25 -32.5 C 76.25 -32.832031 83.664062 -36 89.5 -42 Z M 89.5 -42 "/></g></g></g><g fill="#ff5757" fill-opacity="1"><g transform="translate(928.243936, 529.375013)"><g><path d="M 110.5 -15.5 C 98.332031 -5.164062 84.164062 0 68 0 C 50.164062 -0.164062 35 -6.582031 22.5 -19.25 C 10 -31.914062 3.832031 -47.082031 4 -64.75 C 4.164062 -82.582031 10.582031 -97.75 23.25 -110.25 C 35.914062 -122.75 51.082031 -128.914062 68.75 -128.75 C 84.75 -128.582031 98.75 -123.25 110.75 -112.75 L 87.5 -89.75 C 81.832031 -93.914062 75.5 -96 68.5 -96 C 59.832031 -96 52.332031 -93 46 -87 C 39.832031 -80.832031 36.75 -73.332031 36.75 -64.5 C 36.414062 -55.832031 39.414062 -48.332031 45.75 -42 C 51.75 -36 59.25 -32.832031 68.25 -32.5 C 75.25 -32.5 81.582031 -34.582031 87.25 -38.75 Z M 110.5 -15.5 "/></g></g></g><g fill="#ff5757" fill-opacity="1"><g transform="translate(1042.742572, 529.375013)"><g><path d="M 96.25 0 L 54.5 -50 L 42.5 -38.25 L 42.5 0 L 7.5 0 L 7.5 -173.75 L 42.5 -173.75 L 42.5 -87.75 L 83.5 -128.75 L 133 -128.5 L 79 -74.75 L 142.75 0 Z M 96.25 0 "/></g></g></g></svg>